<?xml version="1.0" encoding="utf-8"?><svg xmlns="http://www.w3.org/2000/svg" xmlns:xlink="http://www.w3.org/1999/xlink"><symbol viewBox="0 0 29 27" id="menu-ico" xmlns="http://www.w3.org/2000/svg"><rect width="29" height="4.75" rx="2" ry="2"/><rect y="11.5" width="29" height="4.719" rx="2" ry="2"/><rect y="22.25" width="29" height="4.75" rx="2" ry="2"/></symbol><symbol viewBox="0 0 14 20" id="search-ico" xmlns="http://www.w3.org/2000/svg"><path d="M8.042.268a5.877 5.877 0 0 0-5.98 1.485A6.7 6.7 0 0 0 .155 8.037a6.855 6.855 0 0 0 3.474 4.725 5.554 5.554 0 0 0 3.694.471c.219-.044.314-.014.354.219l2.843 5.528a1.851 1.851 0 0 0 2.7.719 2.182 2.182 0 0 0 .7-2.221 1.634 1.634 0 0 0-.271-.527c-.852-1.813-1.827-3.553-2.775-5.4a.549.549 0 0 1 .016-.439 7.233 7.233 0 0 0 1.051-7.322A6.205 6.205 0 0 0 8.612.44zM4.831 12.135a5.728 5.728 0 0 1-3.587-6.976 5.153 5.153 0 0 1 6.521-3.868 5.728 5.728 0 0 1 3.588 6.976 5.275 5.275 0 0 1-6.522 3.868zm7.107 6.949a1.137 1.137 0 0 1-.68-.542l-2.775-5.4a.207.207 0 0 1 .083-.307 9.211 9.211 0 0 0 1.23-.729c.247-.146.247-.146.382.117l2.708 5.264.135.264a1.034 1.034 0 0 1-.181 1.052.662.662 0 0 1-.902.281zM9.814 7.461a4.066 4.066 0 0 0-1.307-3.948 2.69 2.69 0 0 0-1.157-.688c-.191-.059-.286-.088-.341.117a.283.283 0 0 0 .2.394 2.989 2.989 0 0 1 1.387.981 3.751 3.751 0 0 1 .806 3.129l-.055.2a.263.263 0 0 0 .231.292c.095.029.123-.073.178-.278a1.61 1.61 0 0 0 .058-.199z"/></symbol></svg>