<svg xmlns="http://www.w3.org/2000/svg" xmlns:xlink="http://www.w3.org/1999/xlink" viewBox="0 0 18 17.969">
    <path d="M24.47,593.167a4.41,4.41,0,0,1,1.169-3,3.417,3.417,0,0,1,5.121-.018,4.635,4.635,0,0,1,.089,6.082,3.442,3.442,0,0,1-5.4-.136A4.565,4.565,0,0,1,24.47,593.167Zm8.366,7.669H31.063a1.21,1.21,0,0,0-1.308,1.3c0,0.414,0,.828,0,1.271H21.993a0.926,0.926,0,0,1-.99-0.975c-0.005-.442-0.01-0.885.018-1.325a1.208,1.208,0,0,1,.657-1.02q2.122-1.158,4.257-2.292a0.291,0.291,0,0,1,.235.007,4.194,4.194,0,0,0,4.077,0,0.292,0.292,0,0,1,.234,0q1.127,0.6,2.244,1.207a0.214,0.214,0,0,1,.106.144C32.838,599.7,32.836,600.254,32.836,600.836Zm1.026-2.058h2.061v3.093H39v2.043H35.934V607H33.873v-3.074H30.789v-2.038h3.073v-3.109Z"
          transform="translate(-21 -589.031)"/>
</svg>
