<svg xmlns="http://www.w3.org/2000/svg" viewBox="0 0 24.937 25.781">
    <path d="M316.556,172.521a18,18,0,0,1-11.155-4.04c-1.653-1.309-1.637-2.037.038-3.234,0.945-.675,1.9-1.347,2.9-1.928,2.027-1.175,4.011-2.141,6.558-1.214a7.415,7.415,0,0,0,4.145-.13,5.317,5.317,0,0,1,4.211.469c1.442,0.8,2.953,1.48,4.378,2.309,1.894,1.1,1.973,2.367.277,3.709A18.048,18.048,0,0,1,316.556,172.521Zm6.084-19.49c-0.053,3.966-2.69,7-6.055,6.976-3.489-.03-6.009-3.19-5.935-7.443A6,6,0,1,1,322.64,153.031Z"
          transform="translate(-304.188 -146.75)"/>
</svg>
