<svg xmlns="http://www.w3.org/2000/svg" xmlns:xlink="http://www.w3.org/1999/xlink" viewBox="0 0 20.5 15.906">
    <path class="cls-1"
          d="M324.833,92.954c-1.679,1.767-3.358,3.535-4.948,5.3-0.972.973-1.855,2.034-2.827,3.006-1.148,1.237-2.209,1.149-3.534-.265-2.474-2.564-4.859-5.215-7.333-7.867l-0.177-.177h18.819Zm-19,15.909c1.855-1.5,3.534-3.006,5.3-4.42,0.706-.53,1.325-1.148,2.032-1.679h0.265a2.974,2.974,0,0,0,3.975.089,1.081,1.081,0,0,1,.8.353c2.208,1.856,4.417,3.712,6.714,5.657H305.838Zm-0.707-14.849,7.421,7.955c-2.474,2.032-4.859,4.154-7.421,6.275V94.014Zm13.076,7.866,7.421-7.954v14.23C323.066,106.035,320.68,104,318.207,101.88Z"
          transform="translate(-305.125 -92.969)"/>
</svg>
