<svg xmlns="http://www.w3.org/2000/svg" xmlns:xlink="http://www.w3.org/1999/xlink" viewBox="0 0 16 16">
    <path d="M37,798q0-3.018,0-6.037a1.826,1.826,0,0,0-.482-1.311,2.03,2.03,0,0,0-1.532-.639c-3.051-.01-7.985-0.013-11.036,0a1.9,1.9,0,0,0-2.017,1.869c-0.006.981,0,1.962,0,2.942a0.562,0.562,0,0,0,.022.109,0.579,0.579,0,0,0,.113-0.055c0.331-.264.657-0.531,0.99-0.792a0.321,0.321,0,0,0,.138-0.275q-0.005-.89,0-1.778a1.377,1.377,0,0,1,.029-0.292,0.677,0.677,0,0,1,.685-0.54c0.05,0,.1,0,0.151,0,2.983,0,7.848,0,10.83,0a1.4,1.4,0,0,1,.44.075,0.537,0.537,0,0,1,.363.4,1.761,1.761,0,0,1,.043.368q0,5.967,0,11.934a1.376,1.376,0,0,1-.034.3,0.671,0.671,0,0,1-.645.519c-0.055,0-.11,0-0.165,0H24.02a0.863,0.863,0,0,1-.616-0.2,0.733,0.733,0,0,1-.209-0.577c0-.6,0-1.2,0-1.791a0.385,0.385,0,0,0-.17-0.34c-0.332-.255-0.652-0.523-0.978-0.784a0.346,0.346,0,0,0-.092-0.04,0.3,0.3,0,0,0-.023.082c0.006,1.074-.015,2.15.032,3.222a1.791,1.791,0,0,0,1.6,1.575,4.514,4.514,0,0,0,.615.045c2.951,0,7.783,0,10.734,0a2.043,2.043,0,0,0,1.782-.864,1.852,1.852,0,0,0,.3-1.1V798Zm-4.72,1.839a0.636,0.636,0,0,0,.739-0.683c0-.767-0.013-1.535.005-2.3a0.666,0.666,0,0,0-.746-0.683c-1.218.007-4.319,0-5.537,0-0.219,0-.223,0-0.227-0.206-0.009-.515-0.015-1.031-0.028-1.546a0.383,0.383,0,0,0-.246-0.383,0.475,0.475,0,0,0-.5.1c-1.367,1.108-4.481,3.619-4.67,3.767-0.089.069-.088,0.122,0,0.192,0.49,0.392,4.429,3.578,4.733,3.818a0.42,0.42,0,0,0,.627-0.158,13.024,13.024,0,0,0,.083-1.717,0.174,0.174,0,0,1,.218-0.208C27.346,799.839,31.675,799.835,32.279,799.834Z"
          transform="translate(-21 -790)"/>
</svg>
