<svg xmlns="http://www.w3.org/2000/svg" xmlns:xlink="http://www.w3.org/1999/xlink" viewBox="0 0 15 17">
    <path d="M29.632,250c-2,0-4.005,0-6.008,0a1.157,1.157,0,0,1-1.1-.721,3.212,3.212,0,0,1-.208-0.753c-0.07-.387-0.125-0.777-0.176-1.166-0.04-.311-0.067-0.623-0.1-0.935C22.023,246.251,22,246.076,22,245.9a0.813,0.813,0,0,1,.158-0.509,0.688,0.688,0,0,1,.5-0.283,1.316,1.316,0,0,1,.722.171,6.108,6.108,0,0,1,.9.6,1.879,1.879,0,0,0,1.449.408,1.921,1.921,0,0,0,.767-0.261,1.783,1.783,0,0,0,.862-1.129,1.737,1.737,0,0,0-.576-1.809,1.9,1.9,0,0,0-1.416-.48,1.872,1.872,0,0,0-.709.2,8.822,8.822,0,0,0-.776.482c-0.209.129-.425,0.25-0.644,0.362a1.053,1.053,0,0,1-.489.119,0.663,0.663,0,0,1-.646-0.4,1,1,0,0,1-.092-0.6c0.028-.214.036-0.43,0.054-0.644s0.036-.425.055-0.638c0.017-.189.033-0.379,0.051-0.568q0.031-.324.067-0.648c0.023-.209.046-0.42,0.074-0.629s0.063-.449.1-0.672a4.028,4.028,0,0,1,.1-0.465,1.044,1.044,0,0,1,.411-0.593,0.945,0.945,0,0,1,.671-0.136c0.2,0.023.391,0.043,0.587,0.065l0.686,0.076,0.593,0.062,0.622,0.065c0.209,0.021.419,0.043,0.629,0.062s0.412,0.039.618,0.053a1.162,1.162,0,0,0,.458-0.027,0.215,0.215,0,0,0,.169-0.287,1.4,1.4,0,0,0-.212-0.476c-0.147-.231-0.305-0.456-0.44-0.693a2.189,2.189,0,0,1-.277-1.237,2.624,2.624,0,0,1,2.083-2.383,2.714,2.714,0,0,1,3,1.384,2.412,2.412,0,0,1,.264.93,2.074,2.074,0,0,1-.132.984,4.008,4.008,0,0,1-.218.426c-0.135.236-.286,0.463-0.414,0.7a1.045,1.045,0,0,0-.111.36c-0.027.231,0.078,0.316,0.314,0.33a2.368,2.368,0,0,0,.355-0.025c0.2-.019.4-0.043,0.6-0.064l0.739-.077,0.617-.061,0.646-.065,0.629-.062c0.122-.012.245-0.019,0.367-0.037a0.656,0.656,0,0,1,.319.047,1.444,1.444,0,0,1,.673.45,1.247,1.247,0,0,1,.245.8q0,0.947,0,1.893,0,3.795,0,7.588a1.518,1.518,0,0,1-.19.791,1.221,1.221,0,0,1-.841.59,2.371,2.371,0,0,1-.476.047Q32.562,250,29.632,250Z"
          transform="translate(-22 -233)"/>
</svg>
