<svg xmlns="http://www.w3.org/2000/svg" xmlns:xlink="http://www.w3.org/1999/xlink" viewBox="0 0 45.25 44.969">
    <path d="M205.816,448.083l0.4-.794a5.046,5.046,0,0,0-.665-4.363,3.572,3.572,0,0,0-1.863-1.587,1.964,1.964,0,0,0-2.529.925,3.864,3.864,0,0,0-.532,2.116,5.058,5.058,0,0,0,1.2,3.306,2.856,2.856,0,0,0,1.6,1.19A1.926,1.926,0,0,0,205.816,448.083Zm1.6,8.727c-0.666-.529-1.331-0.926-1.863-1.322-0.134,0-.134-0.133-0.267-0.133a5.377,5.377,0,0,0-2.528-.132,5.137,5.137,0,0,0-2.927,1.455,2.437,2.437,0,0,0-.267,3.305,3.108,3.108,0,0,0,1.6,1.323,5.988,5.988,0,0,0,2.662.528h0.665a6.4,6.4,0,0,0,2.262-.66A2.747,2.747,0,0,0,208.211,458,1.924,1.924,0,0,0,207.413,456.81Zm1.863-27.769a22.48,22.48,0,1,0,22.622,22.48A22.533,22.533,0,0,0,209.276,429.041Zm0.931,32.265a6.505,6.505,0,0,1-2.395,1.851,8.811,8.811,0,0,1-3.992.926,12.253,12.253,0,0,1-5.323-.926,7.948,7.948,0,0,1-2-1.19,3.839,3.839,0,0,1-1.065-4.628,6.969,6.969,0,0,1,2.662-2.909,8.722,8.722,0,0,1,4.79-1.322h0.266a2.711,2.711,0,0,1-.266-2.249,1.7,1.7,0,0,1-.8-0.132,6.052,6.052,0,0,1-5.19-5.025,5.126,5.126,0,0,1,1.331-4.363,7.456,7.456,0,0,1,5.056-2.513h8.384a0.424,0.424,0,0,1,.4.4,0.627,0.627,0,0,1-.266.661,19.272,19.272,0,0,1-1.73,1.19,0.491,0.491,0,0,1-.4.132h-0.533v0.133a5.558,5.558,0,0,1-.8,7.669c-0.266.265-.532,0.4-0.8,0.661a1.324,1.324,0,0,0-.533.661,0.8,0.8,0,0,0,0,1.058,7.642,7.642,0,0,0,1.464,1.455,5.6,5.6,0,0,0,.932.661,6.022,6.022,0,0,1,2,3.57A6.6,6.6,0,0,1,210.207,461.306Zm13.174-10.447a0.627,0.627,0,0,1-.665.662h-4.259v4.1a0.568,0.568,0,0,1-.665.661h-1.064a0.626,0.626,0,0,1-.666-0.661v-4.1h-4.125a0.627,0.627,0,0,1-.665-0.662V449.8a0.627,0.627,0,0,1,.665-0.661h4.125v-4.1a0.7,0.7,0,0,1,.8-0.793h1.064a0.627,0.627,0,0,1,.666.661v4.231h4.125a0.568,0.568,0,0,1,.665.661v1.058Z"
          transform="translate(-186.656 -429.031)"/>
</svg>
