<svg xmlns="http://www.w3.org/2000/svg" viewBox="0 0 35 31">
    <path d="M24.86 0.39C22.27 0.8 20.35 2.15 18.75 4.08C18.07 4.91 17.55 4.91 16.86 4.09C16.26 3.38 15.57 2.71 14.84 2.11C10.88 -1.14 2.12 -0.53 0.81 7.15C0.16 11 1.45 14.41 4.05 17.19C8.2 21.63 12.54 25.89 16.79 30.24C17.49 30.96 18.11 30.96 18.82 30.24C23.03 25.92 27.32 21.68 31.47 17.3C33.66 15 34.88 12.18 34.95 9.77C34.96 3.2 30.5 -0.51 24.86 0.39ZM30.6 16.48C27.87 19.35 25.04 22.22 22.3 25C20.85 26.46 19.4 27.93 17.96 29.4C17.89 29.47 17.84 29.52 17.8 29.54C17.76 29.52 17.71 29.47 17.64 29.4C16.27 27.99 14.88 26.6 13.5 25.2C10.66 22.33 7.72 19.36 4.92 16.37C2.41 13.69 1.43 10.66 1.99 7.35C2.73 3 6.19 1.45 9.17 1.45C11.03 1.45 12.87 2.04 14.08 3.03C14.77 3.6 15.4 4.22 15.95 4.87C16.17 5.12 16.82 5.9 17.81 5.9C17.81 5.9 17.81 5.9 17.81 5.9C18.8 5.9 19.46 5.11 19.68 4.85C21.25 2.94 22.95 1.9 25.05 1.57C25.54 1.49 26.03 1.45 26.5 1.45C28.47 1.45 30.19 2.13 31.47 3.41C32.96 4.9 33.75 7.1 33.75 9.76C33.69 11.96 32.51 14.47 30.6 16.48Z"/>
</svg>