<svg xmlns="http://www.w3.org/2000/svg" xmlns:xlink="http://www.w3.org/1999/xlink" viewBox="0 0 15 15">
    <path d="M34.3,755.475c-0.184.194-.345,0.37-0.513,0.54q-0.737.741-1.479,1.479c-0.406.406-.805,0.819-1.219,1.218a1.69,1.69,0,0,1-2.389-.058c-0.45-.462-0.912-0.915-1.37-1.371a1.7,1.7,0,0,1,.012-2.373c0.776-.769,1.545-1.545,2.316-2.318l0.864-.868c-0.1-.1-0.191-0.2-0.289-0.3-0.541-.542-1.086-1.079-1.621-1.627a2.314,2.314,0,0,1-.321-0.425,0.173,0.173,0,0,1,.1-0.277,2.516,2.516,0,0,1,.431-0.09A2.3,2.3,0,0,1,29.142,749c2.156,0,4.312,0,6.469,0a5.524,5.524,0,0,1,.877.1,0.488,0.488,0,0,1,.414.414,4.415,4.415,0,0,1,.093.793q0.01,3.4,0,6.8a2.032,2.032,0,0,1-.085.5,0.161,0.161,0,0,1-.274.107,4.418,4.418,0,0,1-.569-0.468c-0.517-.5-1.023-1.016-1.533-1.528C34.463,755.655,34.4,755.579,34.3,755.475Zm-5.8-3.553c-0.168.163-.338,0.325-0.5,0.49-0.377.373-.75,0.75-1.13,1.12a0.287,0.287,0,0,1-.185.078c-0.6.006-1.206,0-1.809,0a1.05,1.05,0,0,0-1.034.639,1.205,1.205,0,0,0-.1.485q-0.01,3.2,0,6.408a1.085,1.085,0,0,0,1.129,1.123q3.2,0,6.4,0a1.08,1.08,0,0,0,1.1-.826,1.444,1.444,0,0,0,.034-0.356c0-.575,0-1.15,0-1.725a0.31,0.31,0,0,1,.081-0.195c0.509-.518,1.024-1.03,1.538-1.544,0.027-.027.056-0.052,0.107-0.1v0.155c0,1.142,0,2.284,0,3.426a2.818,2.818,0,0,1-2.628,2.885C31.4,764,31.314,764,31.226,764q-3.175,0-6.349,0a2.822,2.822,0,0,1-2.87-2.63C22,761.289,22,761.209,22,761.13q0-3.187,0-6.373a2.8,2.8,0,0,1,.813-2.034,2.562,2.562,0,0,1,1.809-.821c1.265-.025,2.531-0.014,3.8-0.017a0.559,0.559,0,0,1,.057.006Z"
          transform="translate(-22 -749)"/>
</svg>
