<svg xmlns="http://www.w3.org/2000/svg" xmlns:xlink="http://www.w3.org/1999/xlink" viewBox="0 0 18.156 18.344">
    <path d="M36.34,685.345v-2.791h2.82v-1.926H36.34v-2.791H34.465v2.791H31.653v1.926h2.813v2.791H36.34ZM21,678.966a4.23,4.23,0,0,1,.23-0.755,3.269,3.269,0,0,1,.54-0.784c0.746-.773,1.51-1.529,2.277-2.28a2.5,2.5,0,0,1,3.5-.082,0.633,0.633,0,0,0,.093.055c-0.213.214-.4,0.4-0.59,0.592-0.24.242-.477,0.488-0.722,0.726a0.244,0.244,0,0,1-.182.07,1.216,1.216,0,0,0-1.106.326c-0.533.5-1.055,1.017-1.556,1.553a1.207,1.207,0,0,0-.014,1.685c0.448,0.492.917,0.968,1.4,1.419a1.213,1.213,0,0,0,1.752-.033c0.488-.468.965-0.949,1.435-1.437a1.428,1.428,0,0,0,.409-1.174,0.229,0.229,0,0,1,.046-0.164c0.422-.425.849-0.845,1.275-1.265a0.281,0.281,0,0,1,.053-0.03,2.408,2.408,0,0,1,.681,1.343,2.484,2.484,0,0,1-.732,2.238c-0.753.758-1.506,1.517-2.268,2.266a2.5,2.5,0,0,1-3.623-.024c-0.695-.7-1.383-1.4-2.08-2.1a2.607,2.607,0,0,1-.8-1.559A0.154,0.154,0,0,0,21,679.509v-0.543Zm17-6.994c-0.038.151-.069,0.305-0.115,0.454a2.535,2.535,0,0,1-.659,1.063c-0.781.777-1.558,1.559-2.343,2.333a2.46,2.46,0,0,1-3.428.091,0.207,0.207,0,0,0-.063-0.035c0.315-.338.607-0.653,0.9-0.966,0.057-.062.123-0.116,0.177-0.18a0.546,0.546,0,0,1,.519-0.228,1.172,1.172,0,0,0,.926-0.347c0.552-.531,1.1-1.065,1.628-1.623a1.185,1.185,0,0,0,.018-1.68c-0.437-.479-0.894-0.944-1.368-1.384a1.2,1.2,0,0,0-1.735.042q-0.764.744-1.508,1.507a1.268,1.268,0,0,0-.4,1.182,0.158,0.158,0,0,1-.026.122c-0.439.437-.882,0.871-1.323,1.305a2.432,2.432,0,0,1-.514-2.724,2.466,2.466,0,0,1,.449-0.685c0.852-.873,1.706-1.745,2.591-2.583a2.391,2.391,0,0,1,3.246,0c0.831,0.788,1.624,1.619,2.42,2.446a2.2,2.2,0,0,1,.571,1.237,0.873,0.873,0,0,0,.031.113v0.544Zm-10.526,6.385a0.784,0.784,0,0,1-.691-0.486,0.835,0.835,0,0,1,.1-0.907,1.547,1.547,0,0,1,.134-0.15q1.923-1.956,3.847-3.911a0.835,0.835,0,0,1,1.306.025,0.858,0.858,0,0,1-.007,1.065,2.121,2.121,0,0,1-.145.162q-1.911,1.946-3.821,3.889A0.939,0.939,0,0,1,27.474,678.357Z"
          transform="translate(-21 -667)"/>
</svg>
