<svg xmlns="http://www.w3.org/2000/svg" xmlns:xlink="http://www.w3.org/1999/xlink" viewBox="0 0 42.156 41.969">
    <path d="M315.917,431.039A20.981,20.981,0,1,0,337,452.019,21.013,21.013,0,0,0,315.917,431.039Zm9.922,20.486a8.628,8.628,0,0,1-1.489,4.443,5.044,5.044,0,0,1-4.216,1.852,2.5,2.5,0,0,1-1.612-.494,3.145,3.145,0,0,1-.992-1.481,3.924,3.924,0,0,1-1.365,1.481,3,3,0,0,1-1.86.494,2.918,2.918,0,0,1-2.6-1.481,5.38,5.38,0,0,1-.62-3.826,8.914,8.914,0,0,1,1.736-4.813,4.31,4.31,0,0,1,3.472-1.852,5.6,5.6,0,0,1,2.233.371,6.776,6.776,0,0,1,1.86.987h0l-0.744,6.911a5.549,5.549,0,0,0,.124,1.6,0.752,0.752,0,0,0,.744.37,2.776,2.776,0,0,0,2.232-1.358,8.137,8.137,0,0,0,.992-3.332c0.124-2.838-.372-5.06-1.612-6.541-1.24-1.6-3.1-2.345-5.7-2.345a7.21,7.21,0,0,0-5.828,2.592,10.678,10.678,0,0,0-2.357,6.788,9.914,9.914,0,0,0,1.737,6.664,6.984,6.984,0,0,0,5.58,2.469,13.937,13.937,0,0,0,2.109-.247,6.6,6.6,0,0,0,1.86-.617l0.5,1.728a4.712,4.712,0,0,1-2.108.74,8.476,8.476,0,0,1-2.481.247,9.115,9.115,0,0,1-7.317-2.962c-1.736-1.975-2.48-4.69-2.356-8.146s1.116-6.171,3.1-8.145a9.673,9.673,0,0,1,7.565-3.085,8.9,8.9,0,0,1,7.069,2.838A12.248,12.248,0,0,1,325.839,451.525Zm-9.3-3.579a2.107,2.107,0,0,0-1.984,1.111,7.791,7.791,0,0,0-.868,3.456,4.562,4.562,0,0,0,.248,2.345,1.192,1.192,0,0,0,1.116.74,2.1,2.1,0,0,0,1.24-.37,2.92,2.92,0,0,0,.993-1.111v-0.246l0.5-5.925c-0.124,0-.372-0.123-0.5-0.123A1.586,1.586,0,0,1,316.537,447.946Z"
          transform="translate(-294.844 -431.031)"/>
</svg>
