<svg xmlns="http://www.w3.org/2000/svg" xmlns:xlink="http://www.w3.org/1999/xlink" viewBox="0 0 14.969 15">
    <path d="M23.089,483.723c0.117-.142.229-0.29,0.353-0.425,0.477-.52.96-1.032,1.434-1.553a1.073,1.073,0,0,0,.155-0.286c0.283-.629.282-0.629-0.191-1.118a6.444,6.444,0,0,1-.019-8.977A7.49,7.49,0,0,1,29.984,469a7.561,7.561,0,0,1,6.59,2.819,6.443,6.443,0,0,1-.3,8.413,7.8,7.8,0,0,1-6.987,2.411,1.417,1.417,0,0,0-.7.113A11.837,11.837,0,0,1,24.333,484a8.594,8.594,0,0,1-1.2-.111Z"
          transform="translate(-23.031 -469)"/>
</svg>
