<svg xmlns="http://www.w3.org/2000/svg" xmlns:xlink="http://www.w3.org/1999/xlink" viewBox="0 0 16 17">
    <path d="M38.007,639.584q0,2.081,0,4.161c0,0.05,0,.1,0,0.149a0.381,0.381,0,0,1-.615.287c-0.37-.24-0.737-0.485-1.1-0.729q-1-.662-2-1.326l-3.031-2.01c-0.081-.054-0.162-0.109-0.243-0.162A0.356,0.356,0,0,1,31,639.33c0.581-.4,1.166-0.8,1.75-1.192L35.3,636.4l2.037-1.388a0.421,0.421,0,0,1,.461-0.067,0.407,0.407,0,0,1,.208.413Q38.006,637.469,38.007,639.584Zm-8.166,5.4H23.49a0.278,0.278,0,0,1-.291-0.194,0.248,0.248,0,0,1,.122-0.3l1.169-.783,3.829-2.571q0.648-.433,1.3-0.867a0.588,0.588,0,0,1,.729.016c0.565,0.382,1.137.755,1.705,1.132q1.068,0.71,2.135,1.419c0.712,0.473,1.425.943,2.136,1.419a0.669,0.669,0,0,1,.219.2,0.358,0.358,0,0,1-.333.529c-0.269.007-.538,0-0.806,0H29.841ZM22,639.486q0-2.059,0-4.12a0.41,0.41,0,0,1,.149-0.375,0.423,0.423,0,0,1,.522.03l3.306,2.316q1.42,0.995,2.841,1.985a0.368,0.368,0,0,1,.009.667c-0.713.486-1.431,0.966-2.147,1.449l-2.529,1.7c-0.45.3-.9,0.609-1.351,0.911a0.514,0.514,0,0,1-.559.04A0.479,0.479,0,0,1,22,643.62Q22,641.553,22,639.486Zm2.942-3.659-0.826-.57c-0.179-.124-0.351-0.259-0.538-0.372a0.231,0.231,0,0,1-.121-0.233q0-2.515,0-5.03a1.681,1.681,0,0,1,.158-0.857,1.429,1.429,0,0,1,1.207-.756c0.056,0,.113,0,0.17,0q5.008,0,10.016,0a1.534,1.534,0,0,1,1.287.583,1.438,1.438,0,0,1,.294.916q0,2.562,0,5.125a0.209,0.209,0,0,1-.059.152c-0.449.32-.9,0.634-1.392,0.974v-0.194c0-1.654,0-3.308,0-4.962a1.345,1.345,0,0,0-.1-0.552,1.13,1.13,0,0,0-1.111-.649q-2.051,0-4.1,0H26.151a1.085,1.085,0,0,0-1.074.61,1.5,1.5,0,0,0-.128.616c-0.01,1.668-.005,3.335-0.005,5v0.2Zm5.148-2.281c1.08,0,2.159,0,3.239,0a0.705,0.705,0,0,1,.768.788,0.714,0.714,0,0,1-.762.605c-0.188,0-.377,0-0.566,0H26.916a0.8,0.8,0,0,1-.711-0.313,0.687,0.687,0,0,1,.466-1.066,1.527,1.527,0,0,1,.253-0.016h3.168Zm0.012-.919c-1.075,0-2.15,0-3.225,0a0.75,0.75,0,0,1-.72-0.388,0.687,0.687,0,0,1,.506-0.986,1.3,1.3,0,0,1,.2-0.015l6.464,0a0.75,0.75,0,0,1,.649.294,0.649,0.649,0,0,1,.064.7,0.669,0.669,0,0,1-.569.391,2.13,2.13,0,0,1-.226.009H30.1Zm0,3.27h3.253a0.724,0.724,0,0,1,.709.443,0.131,0.131,0,0,1-.062.181c-0.339.22-.671,0.449-1.01,0.67a0.341,0.341,0,0,1-.18.057q-2.871,0-5.743,0A0.328,0.328,0,0,1,26.9,637.2c-0.247-.166-0.492-0.334-0.731-0.51a0.221,0.221,0,0,1-.08-0.163,0.68,0.68,0,0,1,.687-0.627c0.325-.008.651,0,0.976,0H30.1Zm-1.854,2.234h3.33l0.016,0.023c-0.122.084-.243,0.17-0.366,0.252-0.306.2-.613,0.4-0.919,0.6a0.607,0.607,0,0,1-.712.023c-0.434-.278-0.863-0.562-1.294-0.844A0.478,0.478,0,0,1,28.249,638.131Z"
          transform="translate(-22 -628)"/>
</svg>
