<svg xmlns="http://www.w3.org/2000/svg" xmlns:xlink="http://www.w3.org/1999/xlink" viewBox="0 0 42.188 41.969">
    <path d="M152.093,448.581a3.572,3.572,0,0,0,3.6-3.466,3.462,3.462,0,0,0-3.472-3.465,3.545,3.545,0,0,0-3.473,3.465A3.438,3.438,0,0,0,152.093,448.581Zm0.124-17.575A20.978,20.978,0,1,0,173.3,451.922,21.018,21.018,0,0,0,152.217,431.006Zm0,7.055a7.055,7.055,0,1,1,0,14.109,6.981,6.981,0,0,1-7.069-7.055A7.058,7.058,0,0,1,152.217,438.061Zm7.937,16.831a13.167,13.167,0,0,1-1.365,1.114,10.068,10.068,0,0,1-3.6,1.485c-0.5.124-.992,0.124-1.612,0.248h-0.124l0.124,0.124,4.588,4.578,0.62,0.62a1.7,1.7,0,0,1,.124,2.227,1.3,1.3,0,0,1-1.116.619,1.4,1.4,0,0,1-1.364-.371l-1.364-1.362-2.728-2.722c-0.124-.124-0.124-0.124-0.248,0l-3.969,3.96a1.268,1.268,0,0,1-1.24.5,1.412,1.412,0,0,1-.992-0.371l-0.5-.5a1.515,1.515,0,0,1,.248-1.98l5.208-5.2,0.124-.124H150.6a9.3,9.3,0,0,1-4.092-1.238,11.223,11.223,0,0,1-1.984-1.361,1.615,1.615,0,0,1-.5-1.98,1.636,1.636,0,0,1,2.356-.867l0.744,0.372a6.4,6.4,0,0,0,2.48,1.113,9.672,9.672,0,0,0,2.729.372,4.218,4.218,0,0,0,1.24-.124,13.073,13.073,0,0,0,2.108-.5,6.909,6.909,0,0,0,2.108-1.114,2.209,2.209,0,0,1,1.24-.495,1.771,1.771,0,0,1,1.489.743A1.44,1.44,0,0,1,160.154,454.892Z"
          transform="translate(-131.125 -431)"/>
</svg>
