<svg xmlns="http://www.w3.org/2000/svg" xmlns:xlink="http://www.w3.org/1999/xlink" viewBox="0 0 18 18">
    <path d="M25.35,431.844c0,0.342-.012.633,0,0.922a1.507,1.507,0,1,0,3.015-.012c0.011-.29,0-0.58,0-0.888h3.284c0,0.313-.009.6,0,0.892a1.513,1.513,0,0,0,3.026,0c0.011-.289,0-0.579,0-0.922H36.4c0.676,0,1.353,0,2.029,0,0.561,0,.627.083,0.5,0.615q-0.993,4.024-1.989,8.049c-0.184.745-.368,1.491-0.557,2.235a1.548,1.548,0,0,1-1.615,1.253q-4.777,0-9.554,0a1.533,1.533,0,0,1-1.614-1.253q-1.278-5.142-2.55-10.285c-0.127-.513-0.054-0.611.459-0.611C22.763,431.842,24.016,431.844,25.35,431.844Zm0.883-2.9a3.9,3.9,0,0,1,7.68.749c0.032,0.99.016,1.982,0.011,2.974a0.762,0.762,0,1,1-1.514.011c-0.009-.963.011-1.927-0.01-2.89a2.387,2.387,0,0,0-4.684-.575,3.941,3.941,0,0,0-.1.953c-0.014.824,0,1.648-.008,2.472a0.76,0.76,0,1,1-1.5.022c-0.009-.266,0-0.531,0-0.8s0-.53,0-0.8A11.388,11.388,0,0,1,26.233,428.944Z"
          transform="translate(-21 -426)"/>
</svg>
