<svg xmlns="http://www.w3.org/2000/svg" viewBox="0 0 9.906 16.343">
    <path d="M30.872,319.882l0.044-.672a3.015,3.015,0,0,1,.956-1.881l0.891-.848a7.278,7.278,0,0,0,1.462-1.843,3.881,3.881,0,0,0,.418-1.766,4.013,4.013,0,0,0-1.286-3.186,5.309,5.309,0,0,0-3.617-1.128,5.287,5.287,0,0,0-3.645,1.188,4.241,4.241,0,0,0-1.358,3.291h3.188a1.969,1.969,0,0,1,.511-1.383,1.738,1.738,0,0,1,1.3-.5,1.584,1.584,0,0,1,1.715,1.861,2.261,2.261,0,0,1-.33,1.173,6.981,6.981,0,0,1-1.325,1.442,5.037,5.037,0,0,0-1.369,1.8,6.614,6.614,0,0,0-.374,2.454h2.815Zm-2.644,4.564a2.007,2.007,0,0,0,2.584,0,1.71,1.71,0,0,0-.011-2.406,1.961,1.961,0,0,0-2.562,0A1.71,1.71,0,0,0,28.227,324.446Z"
          transform="translate(-24.75 -308.563)"/>
</svg>
