<svg xmlns="http://www.w3.org/2000/svg" viewBox="0 0 71 69">
    <path d="M11.7,39.17h-10.6c0.35,3.5 1.4,7.36 2.8,10.51l9.32,-5.49c-0.7,-1.75 -1.17,-3.97 -1.51,-5.02zM15.9,48.75l-9.32,5.49c2.21,3.27 4.89,5.95 8.04,8.17l5.48,-9.22c-1.51,-1.28 -2.91,-2.69 -4.19,-4.44zM24.29,56.8l-4.66,8.52c3.5,1.63 7.81,2.57 11.3,2.92v-10.39c-2.33,-0.23 -4.43,-0.93 -6.41,-1.87zM36.75,57.85v10.39c4.66,-0.35 8.04,-1.63 11.54,-3.39l-5.24,-8.87c-1.98,0.93 -3.96,1.52 -6.29,1.87zM47.12,53.65l5.48,8.52c3.26,-2.34 5.94,-5.25 8.16,-8.52l-8.51,-5.25c-1.4,1.99 -3.15,3.74 -5.13,5.25zM61.34,13.02c-11.42,-12.14 -24.47,-16.46 -40.08,-9.81c-19.93,9.34 -20.28,26.85 -20.28,26.85c-0.12,1.17 -0.23,2.1 -0.23,3.27h10.49c0.12,-4.67 1.4,-19.38 18.76,-22.53c8.39,-1.52 15.85,0.47 22.02,7.47c-2.91,1.87 -5.36,3.39 -8.39,5.37c9.32,5.25 18.76,10.27 26.92,15.41v-31.17c-3.5,1.87 -6.06,3.39 -9.21,5.14z"/>
</svg>