<svg xmlns="http://www.w3.org/2000/svg" xmlns:xlink="http://www.w3.org/1999/xlink" viewBox="0 0 14 20">
    <path d="M198.042,89.268a5.877,5.877,0,0,0-5.98,1.485,6.7,6.7,0,0,0-1.907,6.284,6.855,6.855,0,0,0,3.474,4.725,5.554,5.554,0,0,0,3.694.471c0.219-.044.314-0.014,0.354,0.219q1.422,2.764,2.843,5.528a1.851,1.851,0,0,0,2.7.719,2.182,2.182,0,0,0,.7-2.221,1.634,1.634,0,0,0-.271-0.527c-0.852-1.813-1.827-3.553-2.775-5.4a0.549,0.549,0,0,1,.016-0.439,7.233,7.233,0,0,0,1.051-7.322,6.205,6.205,0,0,0-3.329-3.35Zm-3.211,11.867a5.728,5.728,0,0,1-3.587-6.976,5.153,5.153,0,0,1,6.521-3.868,5.728,5.728,0,0,1,3.588,6.976A5.275,5.275,0,0,1,194.831,101.135Zm7.107,6.949a1.137,1.137,0,0,1-.68-0.542l-2.775-5.4a0.207,0.207,0,0,1,.083-0.307,9.211,9.211,0,0,0,1.23-.729c0.247-.146.247-0.146,0.382,0.117l2.708,5.264,0.135,0.264a1.034,1.034,0,0,1-.181,1.052A0.662,0.662,0,0,1,201.938,108.084Zm-2.124-11.623a4.066,4.066,0,0,0-1.307-3.948,2.69,2.69,0,0,0-1.157-.688c-0.191-.059-0.286-0.088-0.341.117a0.283,0.283,0,0,0,.2.394,2.989,2.989,0,0,1,1.387.981,3.751,3.751,0,0,1,.806,3.129c-0.027.1-.027,0.1-0.055,0.2a0.263,0.263,0,0,0,.231.292c0.095,0.029.123-.073,0.178-0.278C199.759,96.666,199.787,96.564,199.814,96.461Z" transform="translate(-190 -89)"/>
</svg>
