<svg xmlns="http://www.w3.org/2000/svg" xmlns:xlink="http://www.w3.org/1999/xlink" viewBox="0 0 17 17.031">
    <path d="M29.557,726c-0.405-.036-0.811-0.064-1.215-0.11a0.46,0.46,0,0,1-.395-0.586,1.465,1.465,0,0,0-.126-0.976,1.447,1.447,0,0,0-2.5-.14,0.5,0.5,0,0,1-.448.3,0.59,0.59,0,0,1-.29-0.087,8.281,8.281,0,0,1-1.845-1.78,0.468,0.468,0,0,1,.108-0.72,1.507,1.507,0,0,0,.643-0.9,1.466,1.466,0,0,0-.73-1.595,1.445,1.445,0,0,0-.972-0.138,0.5,0.5,0,0,1-.528-0.116,0.594,0.594,0,0,1-.132-0.258,8,8,0,0,1-.039-2.579,0.456,0.456,0,0,1,.551-0.409,1.563,1.563,0,0,0,1.107-.194,1.491,1.491,0,0,0,.671-1.337,1.429,1.429,0,0,0-.632-1.085c-0.037-.025-0.073-0.053-0.108-0.081a0.46,0.46,0,0,1-.092-0.652,8.406,8.406,0,0,1,1.765-1.823,0.47,0.47,0,0,1,.729.1,1.538,1.538,0,0,0,.88.613,1.486,1.486,0,0,0,1.608-.734,1.626,1.626,0,0,0,.132-1.015,0.47,0.47,0,0,1,.444-0.6,8.291,8.291,0,0,1,2.447-.035,0.48,0.48,0,0,1,.464.607,1.449,1.449,0,0,0,2.58,1.136,1.84,1.84,0,0,1,.149-0.193,0.467,0.467,0,0,1,.627-0.061A8.749,8.749,0,0,1,36.2,712.26a0.487,0.487,0,0,1-.1.8,1.433,1.433,0,0,0-.6,1.408,1.456,1.456,0,0,0,1.615,1.214c0.067-.011.134-0.024,0.2-0.033a0.462,0.462,0,0,1,.553.408,8.2,8.2,0,0,1,.048,2.526,0.465,0.465,0,0,1-.566.438,1.648,1.648,0,0,0-.879.083,1.463,1.463,0,0,0-.879,1.478,1.433,1.433,0,0,0,.686,1.1,0.484,0.484,0,0,1,.125.747,8.843,8.843,0,0,1-1.254,1.4,6.2,6.2,0,0,1-.527.426,0.459,0.459,0,0,1-.675-0.124,1.408,1.408,0,0,0-1.519-.653,1.432,1.432,0,0,0-1.13,1.684c0.01,0.057.023,0.115,0.03,0.173a0.458,0.458,0,0,1-.4.522c-0.241.037-.483,0.073-0.726,0.1-0.216.02-.434,0.023-0.65,0.033Zm3.6-8.559a3.652,3.652,0,1,0-3.681,3.692A3.641,3.641,0,0,0,33.161,717.44Z"
          transform="translate(-21 -708.969)"/>
</svg>
