<svg xmlns="http://www.w3.org/2000/svg" xmlns:xlink="http://www.w3.org/1999/xlink" viewBox="0 0 19 17">
    <path d="M20,394.531l2.011-.254,2.439-.3c0.673-.086,1.344-0.18,2.018-0.254a0.308,0.308,0,0,0,.276-0.2q1.315-2.644,2.637-5.287c0.035-.071.076-0.139,0.131-0.24,0.123,0.243.231,0.454,0.337,0.666q1.214,2.433,2.425,4.864a0.31,0.31,0,0,0,.278.2c0.947,0.11,1.892.235,2.839,0.355l2.775,0.35,0.847,0.107c-0.1.093-.177,0.163-0.254,0.231q-2.237,1.956-4.477,3.909a0.317,0.317,0,0,0-.111.355q0.57,2.765,1.127,5.53l0.092,0.456-0.251-.129q-2.719-1.407-5.437-2.819a0.364,0.364,0,0,0-.386,0q-2.706,1.411-5.418,2.809l-0.263.135c0.051-.268.092-0.5,0.14-0.736q0.543-2.655,1.09-5.308a0.268,0.268,0,0,0-.115-0.281q-2.233-1.946-4.46-3.9C20.2,394.711,20.115,394.633,20,394.531Z"
          transform="translate(-20 -388)"/>
</svg>
