<svg xmlns="http://www.w3.org/2000/svg" xmlns:xlink="http://www.w3.org/1999/xlink" viewBox="0 0 16 20">
    <path d="M35.312,557.6a0.972,0.972,0,0,1,.843,1.2,3.97,3.97,0,0,1-.953,2.54,4.119,4.119,0,0,0-.489,1.014,11.519,11.519,0,0,1-2.087,3.225,4.308,4.308,0,0,1-6.367.023,12.114,12.114,0,0,1-2.306-3.692c-0.017-.04-0.032-0.081-0.048-0.12-0.157-.373-0.157-0.369-0.512-0.279a1.012,1.012,0,0,1-.974-0.274,2.744,2.744,0,0,1-.677-0.9,16.076,16.076,0,0,1-.676-2.155,1.7,1.7,0,0,1,.715-1.821,0.315,0.315,0,0,0,.1-0.225c0.014-1.058-.023-2.118.04-3.172a5.285,5.285,0,0,1,1.1-2.785,7.462,7.462,0,0,1,5.119-3.074,8.19,8.19,0,0,1,4.642.579A7,7,0,0,1,36.7,551.8a4.927,4.927,0,0,1,.3,1.716q0,1.4,0,2.81c0,0.061,0,.123,0,0.184a0.513,0.513,0,0,1-.4.487,0.491,0.491,0,0,1-.415-0.494c0-.762-0.027-1.524,0-2.284a5.57,5.57,0,0,0-1.371-3.863,6.542,6.542,0,0,0-4.484-2.433,6.929,6.929,0,0,0-4.547.924,6.363,6.363,0,0,0-3.02,4.137,3.648,3.648,0,0,0-.081.753q-0.015,1.089,0,2.18a0.731,0.731,0,0,0,.149.316,3.74,3.74,0,0,1,.289.436c0.1,0.227.158,0.476,0.24,0.713a2.149,2.149,0,0,0,.112.232l0.071-.023c-0.019-.2-0.034-0.4-0.059-0.6a13.859,13.859,0,0,1-.091-3.06,5.126,5.126,0,0,1,3.044-4.435,6.8,6.8,0,0,1,6,.007,5.023,5.023,0,0,1,2.588,2.636,6.033,6.033,0,0,1,.478,2.445c-0.01.933-.116,1.864-0.181,2.8C35.325,557.452,35.319,557.519,35.312,557.6Zm-10.594,1.289-0.03.013a2.19,2.19,0,0,0-.1-0.224,7,7,0,0,0-.383-0.6,0.247,0.247,0,0,0-.389-0.036,0.307,0.307,0,0,0-.093.385c0.24,0.776.461,1.558,0.692,2.337a0.462,0.462,0,0,0,.1.148,6.69,6.69,0,0,0,3.072,2.153,0.2,0.2,0,0,0,.308-0.12,0.794,0.794,0,0,1,.762-0.461c0.251,0,.5,0,0.752,0a0.891,0.891,0,0,1,.857.911,0.871,0.871,0,0,1-.884.874,5.019,5.019,0,0,1-1.363-.147,8.351,8.351,0,0,1-2.183-.908c-0.163-.1-0.324-0.206-0.486-0.309l-0.046.047c0.131,0.244.255,0.494,0.393,0.734a4.949,4.949,0,0,0,1.752,1.951,4,4,0,0,0,5.319-1.289,18.437,18.437,0,0,0,1.522-3.006,1.943,1.943,0,0,1,.329-0.6,2.552,2.552,0,0,0,.666-1.313,3.483,3.483,0,0,0,.035-0.961A0.486,0.486,0,0,0,34.9,558a0.724,0.724,0,0,0-.421.326,4.567,4.567,0,0,0-.341.647,17.465,17.465,0,0,0,.349-2.859,1.751,1.751,0,0,0-.185-0.029,14.627,14.627,0,0,1-3.215-.442,6.936,6.936,0,0,1-2.392-1.044c-0.572-.419-1.1-0.914-1.633-1.39a0.463,0.463,0,0,0-.473-0.143,2.917,2.917,0,0,0-1.755,1.386,2.336,2.336,0,0,0-.439.946,10.463,10.463,0,0,0,.061,1.856C24.511,557.8,24.629,558.345,24.718,558.893Z"
          transform="translate(-21 -547)"/>
</svg>
