<svg xmlns="http://www.w3.org/2000/svg" xmlns:xlink="http://www.w3.org/1999/xlink" viewBox="0 0 42.156 41.969">
    <path d="M43.083,431.039a20.981,20.981,0,1,0,21.083,20.98A21.014,21.014,0,0,0,43.083,431.039ZM53.5,460.288H49.408a1.761,1.761,0,0,1-.744-0.247c-0.744-.74-1.488-1.481-2.356-2.221a7.08,7.08,0,0,0-.992-0.864,0.471,0.471,0,0,0-.868.247,2.392,2.392,0,0,0-.124.987,4.178,4.178,0,0,1-.124,1.234c0,0.124-.124.247-0.124,0.37a0.679,0.679,0,0,1-.744.494H39.982a1.762,1.762,0,0,1-.744-0.247,11.021,11.021,0,0,1-3.224-2.592,40.474,40.474,0,0,1-4.093-5.306,33.221,33.221,0,0,1-1.984-3.579c-0.124-.247-0.248-0.618-0.372-0.864a1.307,1.307,0,0,1,.124-0.988,0.66,0.66,0,0,1,.372-0.247h3.72a1.317,1.317,0,0,1,.62.247,4.357,4.357,0,0,1,.992,1.605,28.3,28.3,0,0,0,2.6,4.072,0.573,0.573,0,0,0,.62.371c0.248,0,.372,0,0.372-0.371v-2.221h0v-2.1a0.41,0.41,0,0,0-.5-0.494H38.37a0.525,0.525,0,0,1-.62-0.37A0.956,0.956,0,0,1,38,446.219a1.861,1.861,0,0,1,.868-0.371h3.968a1.118,1.118,0,0,1,.62.124,1.188,1.188,0,0,1,.992,1.111v5.43a0.314,0.314,0,0,0,.5.247,2.183,2.183,0,0,0,.62-0.494,7.434,7.434,0,0,0,1.116-1.6c0.5-1.111.992-2.345,1.612-3.456v-0.123a0.826,0.826,0,0,1,.868-0.618h4.216a1.118,1.118,0,0,1,.62.124,0.822,0.822,0,0,1,.62.864,2.47,2.47,0,0,1-.5,1.6c-0.62.741-1.116,1.481-1.736,2.345a15.73,15.73,0,0,0-1.612,2.345,0.558,0.558,0,0,0,0,.617c0.868,0.987,1.86,1.975,2.728,3.085,0.372,0.371.62,0.741,0.992,1.111A1.277,1.277,0,0,1,53.5,460.288Z"
          transform="translate(-22 -431.031)"/>
</svg>
