<svg xmlns="http://www.w3.org/2000/svg" xmlns:xlink="http://www.w3.org/1999/xlink" viewBox="0 0 18 18">
    <path d="M24.6,511.478c-0.249.172-.5,0.345-0.748,0.515a0.173,0.173,0,0,1-.089.015H22.278a0.273,0.273,0,0,0-.3.264,0.286,0.286,0,0,0,.3.287c0.192,0.005.385,0.008,0.577,0.008H37.2a0.785,0.785,0,0,1,.68.312,0.51,0.51,0,0,1,.1.31q0,1.852,0,3.7c0,0.077-.017.09-0.114,0.091-0.44,0-.879,0-1.319,0a2.318,2.318,0,0,0-1.5.5,2.145,2.145,0,0,0-.833,1.481,2.207,2.207,0,0,0,1.479,2.313,2.359,2.359,0,0,0,.808.137h1.35a1.186,1.186,0,0,0,.132-0.014v0.079q0,1.418,0,2.836a0.684,0.684,0,0,1-.709.685H21.688A0.716,0.716,0,0,1,21,524.491a0.688,0.688,0,0,1-.016-0.172q0-5.655,0-11.31a3.32,3.32,0,0,1,.081-0.845,0.8,0.8,0,0,1,.814-0.669c0.313-.022.628-0.028,0.943-0.031,0.562,0,1.124,0,1.686,0h0.084Zm-0.238.8L31.93,507l2.167,2.795-0.109.042L27.9,512.1c-0.1.036-.2,0.066-0.289,0.11a1.064,1.064,0,0,1-.46.082c-0.9,0-1.8,0-2.693,0H24.369ZM38.988,516.7v0.077q0,1.572,0,3.145a0.116,0.116,0,0,1-.047.1c-0.322.258-.641,0.52-0.964,0.777a0.247,0.247,0,0,1-.138.051c-0.453,0-.905,0-1.358,0a1.666,1.666,0,0,1-1.413-.723,1.641,1.641,0,0,1,1.074-2.552,2.121,2.121,0,0,1,.356-0.032c0.447,0,.895,0,1.342,0a0.229,0.229,0,0,0,.131-0.046c0.31-.241.616-0.486,0.923-0.73Zm-3.359,2.5a0.862,0.862,0,1,0,.866-0.826A0.848,0.848,0,0,0,35.629,519.2Zm-6.793-6.924,6.443-2.245,0.863,2.258h-7.3Zm9.6,4.187v-0.112c0-1.25,0-2.5,0-3.749a0.572,0.572,0,0,0-.615-0.59q-0.57,0-1.139,0a0.1,0.1,0,0,1-.118-0.08c-0.055-.153-0.115-0.305-0.177-0.468h0.091c0.5,0,1.01.009,1.514,0a0.844,0.844,0,0,1,.636.247,2.07,2.07,0,0,1,.236.279,0.7,0.7,0,0,1,.127.419q0,1.851.01,3.7a0.11,0.11,0,0,1-.075.119C38.759,516.3,38.6,516.377,38.432,516.46Zm0.558,4.159c0,0.025,0,.04,0,0.055q0,1.352,0,2.706a0.626,0.626,0,0,1-.358.6,1.6,1.6,0,0,1-.207.072v-0.1q0-1.488,0-2.977a0.111,0.111,0,0,1,.076-0.12C38.666,520.779,38.822,520.7,38.99,520.619Z"
          transform="translate(-21 -507)"/>
</svg>
